<mxfile host="app.diagrams.net" modified="2024-04-20T19:34:50.339Z" agent="Mozilla/5.0 (Windows NT 10.0; Win64; x64) AppleWebKit/537.36 (KHTML, like Gecko) Chrome/124.0.0.0 Safari/537.36" etag="f5H_L5GPrhqf7vYy5oJg" version="24.2.7" type="github">
  <diagram name="Page-1" id="Q5VpdjAaMo4lQVa2g33S">
    <mxGraphModel dx="1231" dy="663" grid="0" gridSize="10" guides="1" tooltips="1" connect="1" arrows="1" fold="1" page="1" pageScale="1" pageWidth="850" pageHeight="1100" background="#f0e1cd" math="0" shadow="0">
      <root>
        <mxCell id="0" />
        <mxCell id="1" parent="0" />
        <mxCell id="KBVNrPTxMM-x9LvNGslD-2" value="" style="ellipse;shape=cloud;whiteSpace=wrap;html=1;fillColor=#d5e8d4;strokeColor=#82b366;shadow=1;" parent="1" vertex="1">
          <mxGeometry x="30" y="10" width="780" height="230" as="geometry" />
        </mxCell>
        <mxCell id="KBVNrPTxMM-x9LvNGslD-3" value="&lt;font color=&quot;#ff0000&quot; style=&quot;font-size: 30px;&quot;&gt;С-пептид&lt;/font&gt;&lt;font style=&quot;font-size: 20px;&quot;&gt;:&amp;nbsp;&lt;/font&gt;&lt;div&gt;&lt;font style=&quot;font-size: 20px;&quot;&gt;выводится почками;&lt;/font&gt;&lt;div style=&quot;font-size: 20px;&quot;&gt;&lt;font style=&quot;font-size: 20px;&quot;&gt;в моче только &lt;font color=&quot;#ab0000&quot;&gt;10%&lt;/font&gt; неизменённого протеина&amp;nbsp;&lt;/font&gt;&lt;span style=&quot;background-color: initial;&quot;&gt;от изначального количества&amp;nbsp;&lt;/span&gt;&lt;/div&gt;&lt;/div&gt;" style="rounded=1;whiteSpace=wrap;html=1;fillColor=#f9f7ed;strokeColor=#36393d;" parent="1" vertex="1">
          <mxGeometry x="400" y="818" width="400" height="222" as="geometry" />
        </mxCell>
        <mxCell id="KBVNrPTxMM-x9LvNGslD-4" value="" style="shape=mxgraph.signs.healthcare.kidney;html=1;pointerEvents=1;fillColor=#FFCC99;strokeColor=none;verticalLabelPosition=bottom;verticalAlign=top;align=center;fontColor=#663300;shadow=1;" parent="1" vertex="1">
          <mxGeometry x="70" y="810" width="170" height="230" as="geometry" />
        </mxCell>
        <mxCell id="KBVNrPTxMM-x9LvNGslD-5" value="&lt;font style=&quot;font-size: 27px;&quot;&gt;C-пептид&amp;nbsp;&lt;/font&gt;&lt;div style=&quot;font-size: 27px;&quot;&gt;&lt;font style=&quot;font-size: 27px;&quot;&gt;&lt;br&gt;&lt;/font&gt;&lt;div style=&quot;&quot;&gt;&lt;font style=&quot;font-size: 27px;&quot;&gt;&lt;font style=&quot;font-size: 27px;&quot;&gt;T 1/2&lt;/font&gt;&lt;span style=&quot;background-color: initial;&quot;&gt;&amp;nbsp;30 min&lt;/span&gt;&lt;/font&gt;&lt;div style=&quot;&quot;&gt;&lt;div&gt;&lt;br&gt;&lt;/div&gt;&lt;/div&gt;&lt;/div&gt;&lt;/div&gt;" style="whiteSpace=wrap;html=1;fillColor=#F8BBA9;strokeColor=#b85450;gradientColor=#ea6b66;rounded=1;" parent="1" vertex="1">
          <mxGeometry x="425" y="550" width="395" height="190" as="geometry" />
        </mxCell>
        <mxCell id="h3QjR-4epG_l3zSMOFsa-1" value="" style="edgeStyle=orthogonalEdgeStyle;rounded=0;orthogonalLoop=1;jettySize=auto;html=1;" edge="1" parent="1" source="KBVNrPTxMM-x9LvNGslD-8" target="KBVNrPTxMM-x9LvNGslD-10">
          <mxGeometry relative="1" as="geometry" />
        </mxCell>
        <mxCell id="KBVNrPTxMM-x9LvNGslD-8" value="&lt;font style=&quot;font-size: 27px;&quot;&gt;Инсулин&amp;nbsp;&lt;/font&gt;&lt;div style=&quot;font-size: 27px;&quot;&gt;&lt;font style=&quot;font-size: 27px;&quot;&gt;&lt;br&gt;&lt;/font&gt;&lt;div style=&quot;&quot;&gt;&lt;font style=&quot;font-size: 27px;&quot;&gt;&lt;font style=&quot;font-size: 27px;&quot;&gt;T 1/2&amp;nbsp;&lt;/font&gt;&lt;span style=&quot;background-color: initial;&quot;&gt;3 min&lt;/span&gt;&lt;/font&gt;&lt;div style=&quot;&quot;&gt;&lt;div style=&quot;&quot;&gt;&lt;br&gt;&lt;/div&gt;&lt;/div&gt;&lt;/div&gt;&lt;/div&gt;" style="whiteSpace=wrap;html=1;fillColor=#f8cecc;strokeColor=#b85450;gradientColor=#ea6b66;rounded=1;" parent="1" vertex="1">
          <mxGeometry x="30" y="550" width="360" height="190" as="geometry" />
        </mxCell>
        <mxCell id="KBVNrPTxMM-x9LvNGslD-10" value="" style="ellipse;shape=cloud;whiteSpace=wrap;html=1;fillColor=#e1d5e7;strokeColor=#9673a6;sketch=1;curveFitting=1;jiggle=2;shadow=1;" parent="1" vertex="1">
          <mxGeometry x="20" y="250" width="440" height="210" as="geometry" />
        </mxCell>
        <mxCell id="KBVNrPTxMM-x9LvNGslD-11" value="" style="ellipse;shape=cloud;whiteSpace=wrap;html=1;fillColor=#96A395;strokeColor=#82b366;shadow=1;" parent="1" vertex="1">
          <mxGeometry x="450" y="270" width="370" height="180" as="geometry" />
        </mxCell>
        <mxCell id="KBVNrPTxMM-x9LvNGslD-12" value="" style="verticalLabelPosition=bottom;verticalAlign=top;html=1;shape=mxgraph.basic.partConcEllipse;startAngle=0.25;endAngle=0.1;arcWidth=0.5;fillColor=#AB0000;strokeColor=#BD7000;fontColor=#000000;" parent="1" vertex="1">
          <mxGeometry x="690" y="320" width="70" height="70" as="geometry" />
        </mxCell>
        <mxCell id="KBVNrPTxMM-x9LvNGslD-13" value="&lt;font style=&quot;font-size: 14px;&quot;&gt;сигнальный пептид&lt;/font&gt;" style="html=1;points=[[0,0,0,0,5],[0,1,0,0,-5],[1,0,0,0,5],[1,1,0,0,-5]];perimeter=orthogonalPerimeter;outlineConnect=0;targetShapes=umlLifeline;portConstraint=eastwest;newEdgeStyle={&quot;curved&quot;:0,&quot;rounded&quot;:0};direction=south;fillColor=#cdeb8b;strokeColor=#36393d;rounded=1;shadow=1;" parent="1" vertex="1">
          <mxGeometry x="117" y="140" width="133" height="30" as="geometry" />
        </mxCell>
        <mxCell id="KBVNrPTxMM-x9LvNGslD-14" value="&lt;font style=&quot;font-size: 14px;&quot;&gt;В-цепь&lt;/font&gt;" style="html=1;points=[[0,0,0,0,5],[0,1,0,0,-5],[1,0,0,0,5],[1,1,0,0,-5]];perimeter=orthogonalPerimeter;outlineConnect=0;targetShapes=umlLifeline;portConstraint=eastwest;newEdgeStyle={&quot;curved&quot;:0,&quot;rounded&quot;:0};direction=south;fillColor=#ffe6cc;strokeColor=#d79b00;rounded=1;shadow=1;" parent="1" vertex="1">
          <mxGeometry x="250" y="140" width="90" height="30" as="geometry" />
        </mxCell>
        <mxCell id="KBVNrPTxMM-x9LvNGslD-15" value="&lt;font style=&quot;font-size: 14px;&quot;&gt;С-пептид&lt;/font&gt;" style="html=1;points=[[0,0,0,0,5],[0,1,0,0,-5],[1,0,0,0,5],[1,1,0,0,-5]];perimeter=orthogonalPerimeter;outlineConnect=0;targetShapes=umlLifeline;portConstraint=eastwest;newEdgeStyle={&quot;curved&quot;:0,&quot;rounded&quot;:0};direction=south;fillColor=#AB0000;strokeColor=#D79B00;rounded=1;fontColor=#FFFFFF;" parent="1" vertex="1">
          <mxGeometry x="340" y="140" width="110" height="30" as="geometry" />
        </mxCell>
        <mxCell id="KBVNrPTxMM-x9LvNGslD-16" value="А-цепь" style="html=1;points=[[0,0,0,0,5],[0,1,0,0,-5],[1,0,0,0,5],[1,1,0,0,-5]];perimeter=orthogonalPerimeter;outlineConnect=0;targetShapes=umlLifeline;portConstraint=eastwest;newEdgeStyle={&quot;curved&quot;:0,&quot;rounded&quot;:0};direction=south;fillColor=#e6d0de;gradientColor=#d5739d;strokeColor=#996185;rounded=1;" parent="1" vertex="1">
          <mxGeometry x="450" y="140" width="300" height="30" as="geometry" />
        </mxCell>
        <mxCell id="KBVNrPTxMM-x9LvNGslD-17" value="&lt;font style=&quot;font-size: 14px;&quot;&gt;В-цепь&lt;/font&gt;" style="html=1;points=[[0,0,0,0,5],[0,1,0,0,-5],[1,0,0,0,5],[1,1,0,0,-5]];perimeter=orthogonalPerimeter;outlineConnect=0;targetShapes=umlLifeline;portConstraint=eastwest;newEdgeStyle={&quot;curved&quot;:0,&quot;rounded&quot;:0};direction=south;fillColor=#ffe6cc;strokeColor=#d79b00;rounded=1;shadow=1;" parent="1" vertex="1">
          <mxGeometry x="20" y="390" width="150" height="40" as="geometry" />
        </mxCell>
        <mxCell id="KBVNrPTxMM-x9LvNGslD-18" value="&lt;font style=&quot;font-size: 14px;&quot;&gt;С-пептид&lt;/font&gt;" style="html=1;points=[[0,0,0,0,5],[0,1,0,0,-5],[1,0,0,0,5],[1,1,0,0,-5]];perimeter=orthogonalPerimeter;outlineConnect=0;targetShapes=umlLifeline;portConstraint=eastwest;newEdgeStyle={&quot;curved&quot;:0,&quot;rounded&quot;:0};direction=south;fillColor=#AB0000;gradientColor=none;strokeColor=#d79b00;rounded=1;fontColor=#FFFFFF;" parent="1" vertex="1">
          <mxGeometry x="170" y="390" width="110" height="40" as="geometry" />
        </mxCell>
        <mxCell id="KBVNrPTxMM-x9LvNGslD-19" value="А-цепь" style="html=1;points=[[0,0,0,0,5],[0,1,0,0,-5],[1,0,0,0,5],[1,1,0,0,-5]];perimeter=orthogonalPerimeter;outlineConnect=0;targetShapes=umlLifeline;portConstraint=eastwest;newEdgeStyle={&quot;curved&quot;:0,&quot;rounded&quot;:0};direction=south;fillColor=#e6d0de;gradientColor=#d5739d;strokeColor=#996185;rounded=1;" parent="1" vertex="1">
          <mxGeometry x="280" y="390" width="160" height="40" as="geometry" />
        </mxCell>
        <mxCell id="KBVNrPTxMM-x9LvNGslD-20" value="&lt;font style=&quot;font-size: 14px;&quot;&gt;В-цепь&lt;/font&gt;" style="html=1;points=[[0,0,0,0,5],[0,1,0,0,-5],[1,0,0,0,5],[1,1,0,0,-5]];perimeter=orthogonalPerimeter;outlineConnect=0;targetShapes=umlLifeline;portConstraint=eastwest;newEdgeStyle={&quot;curved&quot;:0,&quot;rounded&quot;:0};direction=south;fillColor=#ffe6cc;strokeColor=#d79b00;rounded=1;shadow=1;" parent="1" vertex="1">
          <mxGeometry x="480" y="310" width="190" height="50" as="geometry" />
        </mxCell>
        <mxCell id="KBVNrPTxMM-x9LvNGslD-21" value="А-цепь" style="html=1;points=[[0,0,0,0,5],[0,1,0,0,-5],[1,0,0,0,5],[1,1,0,0,-5]];perimeter=orthogonalPerimeter;outlineConnect=0;targetShapes=umlLifeline;portConstraint=eastwest;newEdgeStyle={&quot;curved&quot;:0,&quot;rounded&quot;:0};direction=south;fillColor=#e6d0de;gradientColor=#d5739d;strokeColor=#996185;rounded=1;" parent="1" vertex="1">
          <mxGeometry x="480" y="400" width="200" height="40" as="geometry" />
        </mxCell>
        <mxCell id="KBVNrPTxMM-x9LvNGslD-23" value="" style="line;strokeWidth=2;direction=south;html=1;" parent="1" vertex="1">
          <mxGeometry x="500" y="360" width="10" height="40" as="geometry" />
        </mxCell>
        <mxCell id="KBVNrPTxMM-x9LvNGslD-24" value="" style="line;strokeWidth=2;direction=south;html=1;" parent="1" vertex="1">
          <mxGeometry x="650" y="360" width="10" height="40" as="geometry" />
        </mxCell>
        <mxCell id="KBVNrPTxMM-x9LvNGslD-25" value="&lt;font style=&quot;font-size: 19px;&quot;&gt;Эндоплазматический ретикулюм&lt;/font&gt;" style="shape=ext;double=1;rounded=1;whiteSpace=wrap;html=1;fillColor=#ffcc99;strokeColor=#36393d;" parent="1" vertex="1">
          <mxGeometry x="50" y="10" width="220" height="100" as="geometry" />
        </mxCell>
        <mxCell id="KBVNrPTxMM-x9LvNGslD-26" value="&lt;font style=&quot;font-size: 26px;&quot;&gt;Пре-проинсулин&lt;/font&gt;" style="ellipse;shape=doubleEllipse;whiteSpace=wrap;html=1;fillColor=#ffe6cc;strokeColor=#d79b00;" parent="1" vertex="1">
          <mxGeometry x="380" y="10" width="290" height="110" as="geometry" />
        </mxCell>
        <mxCell id="KBVNrPTxMM-x9LvNGslD-27" value="&lt;font style=&quot;font-size: 24px;&quot;&gt;Аппарат Гольджи&lt;/font&gt;&lt;div&gt;&lt;font style=&quot;font-size: 24px;&quot;&gt;проинсулин&lt;/font&gt;&lt;/div&gt;" style="ellipse;shape=doubleEllipse;whiteSpace=wrap;html=1;fillColor=#ffe6cc;strokeColor=#d79b00;" parent="1" vertex="1">
          <mxGeometry x="60" y="240" width="290" height="110" as="geometry" />
        </mxCell>
        <mxCell id="KBVNrPTxMM-x9LvNGslD-28" value="&lt;font style=&quot;font-size: 24px;&quot;&gt;гранула&lt;/font&gt;" style="ellipse;shape=doubleEllipse;whiteSpace=wrap;html=1;fillColor=#ffe6cc;strokeColor=#d79b00;" parent="1" vertex="1">
          <mxGeometry x="600" y="230" width="170" height="70" as="geometry" />
        </mxCell>
        <mxCell id="KBVNrPTxMM-x9LvNGslD-30" value="" style="verticalLabelPosition=bottom;verticalAlign=top;html=1;shape=mxgraph.basic.x;fillColor=#f8cecc;strokeColor=#b85450;" parent="1" vertex="1">
          <mxGeometry x="124" y="125" width="72" height="67" as="geometry" />
        </mxCell>
        <mxCell id="KBVNrPTxMM-x9LvNGslD-32" value="" style="verticalLabelPosition=bottom;verticalAlign=top;html=1;shape=mxgraph.basic.partConcEllipse;startAngle=0.25;endAngle=0.1;arcWidth=0.5;fillColor=#AB0000;strokeColor=#BD7000;fontColor=#000000;" parent="1" vertex="1">
          <mxGeometry x="690" y="569" width="70" height="70" as="geometry" />
        </mxCell>
      </root>
    </mxGraphModel>
  </diagram>
</mxfile>
